<?xml version="1.0" standalone="no"?>
<!DOCTYPE svg PUBLIC "-//W3C//DTD SVG 20010904//EN"
 "http://www.w3.org/TR/2001/REC-SVG-20010904/DTD/svg10.dtd">
<svg version="1.0" xmlns="http://www.w3.org/2000/svg"
 width="512.000000pt" height="512.000000pt" viewBox="0 0 512.000000 512.000000"
 preserveAspectRatio="xMidYMid meet">

<g transform="translate(0.000000,512.000000) scale(0.100000,-0.100000)"
fill="#000000" stroke="none">
<path d="M650 4961 c-330 -123 -513 -358 -537 -691 -6 -92 11 -256 30 -278 6
-8 38 -27 71 -44 325 -164 614 -453 841 -841 92 -158 227 -458 212 -473 -3 -4
-35 -1 -70 5 -35 6 -78 11 -95 11 -35 0 -37 3 -21 48 8 22 7 36 -1 52 -11 20
-18 22 -80 18 l-68 -4 -6 86 c-11 126 -35 152 -105 109 -92 -56 -188 -197
-240 -354 -43 -128 -59 -236 -67 -443 -9 -243 -3 -256 131 -281 112 -21 118
-19 163 53 28 43 56 73 89 93 68 43 128 106 159 169 l26 54 67 -6 c132 -13
296 -57 318 -87 6 -7 16 -39 23 -72 43 -200 153 -413 254 -490 l35 -26 -60
-172 c-78 -222 -78 -242 5 -350 58 -76 94 -102 157 -112 21 -3 43 -12 49 -20
10 -12 8 -19 -15 -37 -46 -36 -65 -91 -65 -194 0 -107 4 -112 97 -138 78 -21
99 -13 114 49 6 24 18 50 27 57 13 11 14 4 8 -64 l-8 -77 34 -21 c87 -53 160
-62 173 -20 5 17 16 10 78 -54 123 -126 275 -211 464 -258 78 -20 114 -23 308
-23 243 0 283 6 403 61 96 43 321 206 399 287 112 116 151 233 154 463 1 103
-1 119 -17 131 -10 7 -24 13 -31 13 -15 0 -205 -171 -256 -230 -60 -71 -116
-217 -117 -306 0 -28 -59 -80 -124 -110 -89 -41 -186 -57 -312 -52 -99 5 -120
9 -178 36 -115 54 -195 157 -231 297 -10 39 -15 106 -15 196 0 306 -54 602
-136 748 l-26 46 57 52 c69 63 193 126 300 154 109 27 279 35 421 19 79 -9
118 -10 125 -3 6 6 19 49 29 95 41 187 114 354 213 483 127 166 334 292 536
324 75 12 91 23 91 65 0 57 30 170 60 232 37 76 101 136 187 177 58 27 79 31
172 34 136 5 149 8 156 36 13 50 -79 208 -176 306 -257 256 -751 360 -1360
286 -159 -20 -187 -29 -195 -63 -67 -305 -254 -603 -652 -1039 -110 -121 -137
-158 -187 -253 -32 -60 -74 -129 -94 -152 l-37 -42 -85 12 c-46 7 -112 12
-145 12 -58 0 -62 2 -72 28 -27 65 -34 127 -30 230 6 120 31 201 92 299 23 37
32 61 28 73 -4 10 -43 45 -87 78 -162 121 -293 283 -367 455 -67 154 -81 227
-84 436 -2 136 -6 187 -16 196 -7 6 -58 20 -113 30 -55 9 -143 31 -195 47
-356 113 -504 308 -433 573 14 53 15 66 4 79 -19 23 -65 19 -151 -13z m1262
-3483 l27 -19 -32 -45 c-30 -42 -32 -52 -31 -122 0 -42 6 -104 13 -137 11 -50
21 -67 60 -105 25 -25 60 -52 78 -62 17 -9 36 -26 42 -37 10 -18 9 -21 -11
-21 -15 0 -31 12 -45 34 -23 36 -76 66 -119 66 -30 0 -97 65 -130 125 -18 33
-14 47 91 343 5 14 12 12 57 -20z m2073 -741 c-20 -79 -50 -129 -116 -196 -49
-48 -168 -141 -182 -141 -3 0 14 19 39 43 43 41 45 45 58 132 17 117 50 180
140 273 l71 74 3 -61 c2 -34 -4 -90 -13 -124z m-1537 -49 c67 -138 133 -236
224 -334 l62 -66 -38 16 c-140 58 -291 195 -373 337 l-21 37 28 6 c23 4 31 13
39 43 6 21 11 48 11 61 0 12 2 22 4 22 2 0 31 -55 64 -122z m-224 -109 c-7
-20 -13 -26 -22 -20 -10 6 -12 21 -6 56 l7 48 14 -28 c11 -19 13 -36 7 -56z"/>
<path d="M1782 4351 c-28 -17 -44 -165 -20 -189 7 -7 25 -12 40 -12 34 0 43
18 51 108 4 54 2 67 -14 83 -21 21 -36 23 -57 10z"/>
<path d="M1792 3928 c-18 -18 -15 -58 12 -139 48 -146 66 -173 107 -167 41 6
46 32 21 101 -13 34 -32 91 -42 125 -11 35 -24 70 -31 78 -14 17 -51 18 -67 2z"/>
<path d="M1982 3508 c-21 -21 -13 -50 29 -104 86 -111 291 -284 338 -284 25 0
56 43 44 63 -4 8 -44 42 -88 75 -72 54 -161 140 -238 230 -28 33 -63 42 -85
20z"/>
<path d="M4540 2619 c-147 -38 -388 -179 -398 -233 -5 -21 25 -56 48 -56 9 0
42 20 73 44 108 84 246 144 382 166 31 5 63 15 71 21 17 14 18 51 2 67 -17 17
-92 14 -178 -9z"/>
<path d="M4023 2268 c-58 -66 -66 -99 -29 -123 31 -21 53 -10 89 42 31 45 34
65 11 87 -22 22 -47 20 -71 -6z"/>
<path d="M3856 1957 c-17 -24 -76 -245 -76 -281 0 -30 18 -46 52 -46 34 0 36
4 73 155 37 149 39 163 25 180 -19 22 -57 18 -74 -8z"/>
</g>
</svg>
